<svg id="Next" xmlns="http://www.w3.org/2000/svg" width="59.97" height="60" viewBox="0 0 59.97 60">
  <defs>
    <style>
      .cls-1 {
        fill: #fff;
        opacity: 0.87;
      }

      .cls-2 {
        fill-rule: evenodd;
        opacity: 0.68;
      }
    </style>
  </defs>
  <circle class="cls-1" cx="29.985" cy="30" r="29.985"/>
  <path id="ARROW_LEFT" data-name="ARROW / LEFT" class="cls-2" d="M1486.67,481.919l9.82-10.666-9.95-10.805h0a2.145,2.145,0,0,1-.52-1.413,1.96,1.96,0,0,1,1.87-2.035,1.786,1.786,0,0,1,1.3.571h0l11.25,12.214h0a2.131,2.131,0,0,1,.57,1.466v0.008a2.131,2.131,0,0,1-.57,1.466h0l-11.25,12.215v-0.006a1.811,1.811,0,0,1-1.3.567,1.96,1.96,0,0,1-1.87-2.036A2.1,2.1,0,0,1,1486.67,481.919Z" transform="translate(-1462.03 -442)"/>
</svg>
